<?xml version="1.0" encoding="UTF-8" ?>
<!DOCTYPE svg PUBLIC "-//W3C//DTD SVG 1.1//EN" "http://www.w3.org/Graphics/SVG/1.1/DTD/svg11.dtd">
<svg width="356pt" height="365pt" viewBox="0 0 356 365" version="1.1" xmlns="http://www.w3.org/2000/svg">
<g id="#04010bff">
<path fill="#04010b" opacity="1.00" d=" M 0.00 0.00 L 356.00 0.00 L 356.00 365.00 L 0.00 365.00 L 0.00 0.00 M 89.01 97.74 C 114.06 156.70 139.16 215.63 164.28 274.55 C 180.19 274.45 196.11 274.48 212.03 274.54 C 186.96 215.63 162.01 156.67 136.98 97.75 C 120.99 97.75 105.00 97.76 89.01 97.74 M 160.51 97.40 C 168.48 116.42 176.65 135.37 185.00 154.24 C 186.83 150.50 188.49 146.67 189.92 142.76 C 196.11 127.59 202.80 112.62 209.01 97.47 C 192.84 97.48 176.67 97.61 160.51 97.40 M 196.99 182.23 C 205.01 201.18 213.15 220.09 220.98 239.12 C 223.66 231.88 226.99 224.90 229.89 217.75 C 246.85 177.73 263.76 137.68 280.81 97.69 C 264.88 97.82 248.95 97.72 233.02 97.75 C 220.98 125.90 209.05 154.09 196.99 182.23 Z" />
</g>
<g id="#fefefeff">
<path fill="#fefefe" opacity="1.00" d=" M 89.01 97.74 C 105.00 97.76 120.99 97.75 136.98 97.75 C 162.01 156.67 186.96 215.63 212.03 274.54 C 196.11 274.48 180.19 274.45 164.28 274.55 C 139.16 215.63 114.06 156.70 89.01 97.74 Z" />
<path fill="#fefefe" opacity="1.00" d=" M 196.99 182.23 C 209.05 154.09 220.98 125.90 233.02 97.75 C 248.95 97.72 264.88 97.82 280.81 97.69 C 263.76 137.68 246.85 177.73 229.89 217.75 C 226.99 224.90 223.66 231.88 220.98 239.12 C 213.15 220.09 205.01 201.18 196.99 182.23 Z" />
</g>
<g id="#b46dfaff">
<path fill="#b46dfa" opacity="1.00" d=" M 160.51 97.40 C 176.67 97.61 192.84 97.48 209.01 97.47 C 202.80 112.62 196.11 127.59 189.92 142.76 C 188.49 146.67 186.83 150.50 185.00 154.24 C 176.65 135.37 168.48 116.42 160.51 97.40 Z" />
</g>
</svg>
