<?xml version="1.0" encoding="UTF-8" ?>
<!DOCTYPE svg PUBLIC "-//W3C//DTD SVG 1.1//EN" "http://www.w3.org/Graphics/SVG/1.1/DTD/svg11.dtd">
<svg width="428pt" height="428pt" viewBox="0 0 428 428" version="1.1" xmlns="http://www.w3.org/2000/svg">
<g id="#ffffffff">
<path fill="#ffffff" opacity="1.00" d=" M 55.09 90.72 C 81.92 90.91 108.75 90.54 135.57 90.91 C 145.10 114.35 155.30 137.52 165.08 160.85 C 196.94 235.71 228.54 310.68 260.54 385.47 C 233.87 384.85 207.15 385.55 180.46 385.12 C 170.74 361.45 160.44 338.00 150.49 314.42 C 118.67 239.86 86.99 165.25 55.09 90.72 Z" />
<path fill="#ffffff" opacity="1.00" d=" M 295.29 90.71 C 321.81 90.79 348.34 90.81 374.86 90.70 C 344.67 161.98 314.45 233.25 284.27 304.53 C 281.16 311.72 278.31 319.02 275.01 326.12 C 261.46 294.66 248.61 262.89 235.05 231.44 C 255.39 184.65 275.01 137.53 295.29 90.71 Z" />
</g>
<g id="#080315ff">
<path fill="#080315" opacity="1.00" d=" M 202.30 0.00 L 226.57 0.00 C 257.10 2.10 287.39 10.10 314.39 24.66 C 351.66 44.25 382.85 75.23 402.67 112.39 C 417.66 139.75 425.92 170.55 428.00 201.61 L 428.00 226.53 C 425.36 268.65 410.41 309.98 384.76 343.56 C 364.22 370.69 337.11 392.78 306.38 407.41 C 281.44 419.43 254.08 426.11 226.51 428.00 L 201.45 428.00 C 170.44 425.88 139.70 417.65 112.39 402.68 C 72.99 381.71 40.70 347.89 21.25 307.75 C 8.82 282.40 1.89 254.50 0.00 226.37 L 0.00 201.44 C 0.15 198.29 0.63 195.18 0.91 192.05 C 5.03 150.07 22.08 109.52 49.06 77.11 C 65.65 57.18 85.80 40.17 108.44 27.48 C 137.02 11.14 169.49 1.96 202.30 0.00 M 174.16 90.00 C 187.13 121.14 200.60 152.07 214.21 182.94 C 214.59 183.66 214.99 184.37 215.43 185.08 C 221.10 172.07 226.13 158.79 231.79 145.77 C 239.55 127.19 247.87 108.82 255.17 90.06 C 228.17 89.93 201.16 90.67 174.16 90.00 M 55.09 90.72 C 86.99 165.25 118.67 239.86 150.49 314.42 C 160.44 338.00 170.74 361.45 180.46 385.12 C 207.15 385.55 233.87 384.85 260.54 385.47 C 228.54 310.68 196.94 235.71 165.08 160.85 C 155.30 137.52 145.10 114.35 135.57 90.91 C 108.75 90.54 81.92 90.91 55.09 90.72 M 295.29 90.71 C 275.01 137.53 255.39 184.65 235.05 231.44 C 248.61 262.89 261.46 294.66 275.01 326.12 C 278.31 319.02 281.16 311.72 284.27 304.53 C 314.45 233.25 344.67 161.98 374.86 90.70 C 348.34 90.81 321.81 90.79 295.29 90.71 Z" />
</g>
<g id="#b46dfaff">
<path fill="#b46dfa" opacity="1.00" d=" M 174.16 90.00 C 201.16 90.67 228.17 89.93 255.17 90.06 C 247.87 108.82 239.55 127.19 231.79 145.77 C 226.13 158.79 221.10 172.07 215.43 185.08 C 214.99 184.37 214.59 183.66 214.21 182.94 C 200.60 152.07 187.13 121.14 174.16 90.00 Z" />
</g>
</svg>
