<?xml version="1.0" encoding="UTF-8" ?>
<!DOCTYPE svg PUBLIC "-//W3C//DTD SVG 1.1//EN" "http://www.w3.org/Graphics/SVG/1.1/DTD/svg11.dtd">
<svg width="462pt" height="462pt" viewBox="0 0 462 462" version="1.1" xmlns="http://www.w3.org/2000/svg">
<g id="#04010bff">
</g>
<g id="#b46dfaff">
<path fill="#b46dfa" opacity="1.00" d=" M 190.91 97.00 C 218.09 97.25 245.26 97.03 272.43 97.03 C 261.76 123.28 250.20 149.17 239.50 175.40 C 237.47 181.22 234.68 186.72 232.42 192.44 C 217.91 160.94 204.57 128.89 190.91 97.00 Z" />
</g>
<g id="#fefefeff">
<path fill="#fefefe" opacity="1.00" d=" M 71.89 97.56 C 98.77 97.63 125.66 97.44 152.53 97.66 C 163.50 124.40 175.08 150.91 186.29 177.56 C 214.30 243.53 242.31 309.50 270.32 375.47 C 272.90 381.26 275.04 387.26 277.95 392.90 C 275.38 392.11 272.67 392.52 270.04 392.44 C 245.85 392.38 221.66 392.56 197.47 392.34 C 188.01 369.27 177.96 346.44 168.27 323.45 C 136.11 248.17 104.16 172.79 71.89 97.56 Z" />
<path fill="#fefefe" opacity="1.00" d=" M 312.31 97.50 C 338.91 97.63 365.51 97.54 392.11 97.55 C 358.69 175.96 325.58 254.50 292.31 332.98 C 292.15 332.96 291.83 332.93 291.68 332.92 C 278.53 301.51 265.39 270.10 252.16 238.74 C 257.50 225.18 263.62 211.75 269.24 198.23 C 283.64 164.68 297.76 130.99 312.31 97.50 Z" />
</g>
</svg>
