<?xml version="1.0" encoding="UTF-8" ?>
<!DOCTYPE svg PUBLIC "-//W3C//DTD SVG 1.1//EN" "http://www.w3.org/Graphics/SVG/1.1/DTD/svg11.dtd">
<svg width="314pt" height="301pt" viewBox="0 0 314 301" version="1.1" xmlns="http://www.w3.org/2000/svg">
<g id="#000000ff">
</g>
<g id="#b46dfaff">
<path fill="#b46dfa" opacity="1.00" d=" M 124.46 26.55 C 147.48 26.32 170.52 26.30 193.53 26.56 C 191.79 32.15 189.12 37.38 186.93 42.79 C 180.44 58.30 173.74 73.72 167.21 89.21 C 164.45 95.39 162.23 101.82 159.01 107.78 C 157.14 104.50 155.72 101.00 154.32 97.51 C 146.19 78.39 138.06 59.27 129.93 40.15 C 128.03 35.65 125.92 31.22 124.46 26.55 Z" />
</g>
<g id="#fefefeff">
<path fill="#fefefe" opacity="1.00" d=" M 21.52 26.73 C 44.40 26.74 67.28 26.77 90.15 26.71 C 126.22 111.17 162.07 195.74 197.94 280.28 C 175.10 280.26 152.26 280.16 129.42 280.33 C 118.82 256.31 108.84 232.01 98.46 207.89 C 72.83 147.49 47.12 87.13 21.52 26.73 Z" />
<path fill="#fefefe" opacity="1.00" d=" M 227.85 26.71 C 250.72 26.77 273.60 26.74 296.47 26.73 C 269.23 91.04 241.86 155.29 214.57 219.58 C 213.21 222.81 211.65 225.96 210.72 229.35 C 199.30 202.22 187.53 175.22 176.30 148.02 C 193.35 107.54 210.54 67.09 227.85 26.71 Z" />
</g>
</svg>
